<svg width="46" height="48" viewBox="0 0 46 48" fill="none" xmlns="http://www.w3.org/2000/svg">
<path d="M11.0218 8.90596C10.8469 8.90596 10.6136 8.79029 10.497 8.6168C10.4387 8.55897 10.3803 8.44331 10.322 8.38547C9.97212 7.86499 9.62222 7.34451 9.62222 6.53487C9.62222 5.60957 10.0888 4.85776 10.5553 4.22162C10.9052 3.64331 11.2551 3.12282 11.2551 2.60234C11.2551 2.08186 10.9052 1.50355 10.497 0.983065C10.322 0.693908 10.3803 0.34692 10.6719 0.173427C10.9635 -6.74278e-05 11.3134 0.0577639 11.4884 0.34692C11.9549 1.0409 12.4214 1.7927 12.4214 2.66017C12.4214 3.58547 11.9549 4.27945 11.4884 4.91559C11.1385 5.49391 10.7886 6.01439 10.7886 6.5927C10.7886 7.05535 10.9635 7.34451 11.2551 7.80716C11.3134 7.86499 11.3717 7.98065 11.43 8.03849C11.605 8.32764 11.5467 8.67463 11.2551 8.84812C11.1968 8.84812 11.1385 8.90596 11.0218 8.90596Z" fill="#FFD300"/>
<path d="M21.4021 8.90596C21.2272 8.90596 20.9939 8.79029 20.8773 8.6168C20.819 8.55897 20.7607 8.44331 20.7023 8.38547C20.3524 7.86499 20.0025 7.34451 20.0025 6.53487C20.0025 5.60957 20.4691 4.85776 20.9356 4.22162C21.2855 3.64331 21.6354 3.12282 21.6354 2.60234C21.6354 2.08186 21.2855 1.50355 20.8773 0.983065C20.7023 0.693908 20.7607 0.34692 21.0522 0.173427C21.3438 -6.74278e-05 21.6937 0.0577639 21.8687 0.34692C22.3352 1.0409 22.8017 1.7927 22.8017 2.66017C22.8017 3.58547 22.3352 4.27945 21.8687 4.91559C21.5188 5.49391 21.1689 6.01439 21.1689 6.5927C21.1689 7.05535 21.3438 7.34451 21.6354 7.80716C21.6937 7.86499 21.752 7.98065 21.8104 8.03849C21.9853 8.32764 21.927 8.67463 21.6354 8.84812C21.6354 8.84812 21.5188 8.90596 21.4021 8.90596Z" fill="#FFD300"/>
<path d="M31.7825 8.90596C31.6076 8.90596 31.3743 8.79029 31.2577 8.6168C31.1993 8.55897 31.141 8.44331 31.0827 8.38547C30.7328 7.86499 30.3829 7.34451 30.3829 6.53487C30.3829 5.60957 30.8494 4.85776 31.316 4.22162C31.6659 3.64331 32.0158 3.12282 32.0158 2.60234C32.0158 2.08186 31.6659 1.50355 31.2577 0.983065C31.0827 0.693908 31.141 0.34692 31.4326 0.173427C31.7242 -6.74278e-05 32.0741 0.0577639 32.249 0.34692C32.7156 1.0409 33.1821 1.7927 33.1821 2.66017C33.1821 3.58547 32.7156 4.27945 32.249 4.91559C31.8991 5.49391 31.5492 6.01439 31.5492 6.5927C31.5492 7.05535 31.7242 7.34451 32.0158 7.80716C32.0741 7.86499 32.1324 7.98065 32.1907 8.03849C32.3657 8.32764 32.3074 8.67463 32.0158 8.84812C32.0158 8.84812 31.8991 8.90596 31.7825 8.90596Z" fill="#FFD300"/>
<path d="M41.8043 8.906C41.6294 8.906 41.3961 8.79034 41.2795 8.61684C41.2212 8.55901 41.1628 8.44335 41.1045 8.38552C40.7546 7.86503 40.4047 7.34455 40.4047 6.53491C40.4047 5.60961 40.8713 4.85781 41.3378 4.22166C41.6877 3.64335 42.0376 3.12287 42.0376 2.60238C42.0376 2.0819 41.6877 1.50359 41.2795 0.983108C41.1045 0.693951 41.1628 0.346963 41.4544 0.173469C41.8043 -0.057856 42.1542 -2.47043e-05 42.3875 0.289132C42.7957 0.925276 43.3205 1.73491 43.3205 2.54455C43.3205 3.46985 42.854 4.16383 42.3875 4.79997C42.0376 5.37829 41.6877 5.89877 41.6877 6.47708C41.6877 6.93973 41.8626 7.22889 42.1542 7.69154C42.2125 7.74937 42.2709 7.86503 42.3292 7.92287C42.5041 8.21202 42.4458 8.55901 42.1542 8.7325C42.0376 8.84817 41.921 8.906 41.8043 8.906Z" fill="#FFD300"/>
<path d="M1.80432 8.906C1.62937 8.906 1.3961 8.79034 1.27947 8.61684C1.22116 8.55901 1.16284 8.44335 1.10452 8.38552C0.754621 7.86503 0.404724 7.34455 0.404724 6.53491C0.404724 5.60961 0.871255 4.85781 1.33779 4.22166C1.68769 3.64335 2.03759 3.12287 2.03759 2.60238C2.03759 2.0819 1.68769 1.50359 1.27947 0.983108C1.10452 0.693951 1.16284 0.346963 1.45442 0.173469C1.80432 -0.057856 2.15422 -2.47043e-05 2.38749 0.289132C2.7957 0.925276 3.32055 1.73491 3.32055 2.54455C3.32055 3.46985 2.85402 4.16383 2.38749 4.79997C2.03759 5.37829 1.68769 5.89877 1.68769 6.47708C1.68769 6.93973 1.86264 7.22889 2.15422 7.69154C2.21254 7.74937 2.27085 7.86503 2.32917 7.92287C2.50412 8.21202 2.4458 8.55901 2.15422 8.7325C2.03759 8.84817 1.92095 8.906 1.80432 8.906Z" fill="#FFD300"/>
</svg>
