<svg width="46" height="48" viewBox="0 0 46 48" fill="none" xmlns="http://www.w3.org/2000/svg">
<g clip-path="url(#clip0)">
<path d="M14.2876 44.2988V13.4747C14.2876 11.5084 12.6547 9.88913 10.6719 9.88913C8.68917 9.88913 7.0563 11.5084 7.0563 13.4747V44.2988C7.0563 46.265 8.68917 47.8843 10.6719 47.8843C12.6547 47.8843 14.2876 46.3229 14.2876 44.2988Z" stroke="black" stroke-width="0.2551" stroke-miterlimit="10" stroke-linecap="round" stroke-linejoin="round"/>
<path d="M13.2378 44.2988C13.2378 45.7446 12.0715 46.8434 10.6719 46.8434C9.27232 46.8434 8.10599 45.6868 8.10599 44.2988V13.4747C8.10599 12.0868 9.27232 10.9301 10.6719 10.9301C12.1298 10.9301 13.2378 12.0868 13.2378 13.4747V44.2988V44.2988Z" stroke="black" stroke-width="0.2551" stroke-miterlimit="10" stroke-linecap="round" stroke-linejoin="round"/>
<path fill-rule="evenodd" clip-rule="evenodd" d="M14.2876 44.2988V13.4747C14.2876 11.5084 12.6547 9.88913 10.6719 9.88913C8.68917 9.88913 7.0563 11.5084 7.0563 13.4747V44.2988C7.0563 46.265 8.68917 47.8843 10.6719 47.8843C12.6547 47.8843 14.2876 46.3229 14.2876 44.2988ZM12.6547 43.7205C12.6547 45.1662 12.0715 46.265 10.6719 46.265C9.21402 46.265 8.68917 45.1084 8.68917 43.7205V14.053C8.68917 12.665 9.27233 11.5084 10.6719 11.5084C12.0715 11.5084 12.6547 12.665 12.6547 14.053V44.2988V43.7205Z" fill="black"/>
<path d="M4.84027 14.1109L0.0583191 15.6723V18.7374L4.84027 20.2988V14.1109Z" stroke="black" stroke-width="0.2551" stroke-miterlimit="10" stroke-linecap="round" stroke-linejoin="round"/>
<path d="M1.10802 18.1012V16.1349L3.84889 15.3831V19.0843L1.10802 18.1012Z" stroke="black" stroke-width="0.2551" stroke-miterlimit="10" stroke-linecap="round" stroke-linejoin="round"/>
<path fill-rule="evenodd" clip-rule="evenodd" d="M4.84027 14.1109L0.0583191 15.6723V18.7374L4.84027 20.2988V14.1109ZM1.10802 17.5229V16.7133L3.84889 15.9036V18.5061L1.10802 17.5229Z" fill="black"/>
<path d="M24.6679 44.2988V13.4747C24.6679 11.5084 23.035 9.88913 21.0523 9.88913C19.0695 9.88913 17.4366 11.5084 17.4366 13.4747V44.2988C17.4366 46.265 19.0695 47.8843 21.0523 47.8843C23.035 47.9422 24.6679 46.3229 24.6679 44.2988Z" stroke="black" stroke-width="0.2551" stroke-miterlimit="10" stroke-linecap="round" stroke-linejoin="round"/>
<path d="M23.6182 44.2988C23.6182 45.7446 22.4519 46.8434 21.0523 46.8434C19.6527 46.8434 18.4864 45.6868 18.4864 44.2988V13.4747C18.4864 12.0868 19.6527 10.9301 21.0523 10.9301C22.5102 10.9301 23.6182 12.0868 23.6182 13.4747V44.2988Z" stroke="black" stroke-width="0.2551" stroke-miterlimit="10" stroke-linecap="round" stroke-linejoin="round"/>
<path fill-rule="evenodd" clip-rule="evenodd" d="M24.6679 44.2988V13.4747C24.6679 11.5084 23.035 9.88913 21.0523 9.88913C19.0695 9.88913 17.4366 11.5084 17.4366 13.4747V44.2988C17.4366 46.265 19.0695 47.8843 21.0523 47.8843C23.035 47.8843 24.6679 46.3229 24.6679 44.2988ZM23.035 43.7205C23.035 45.1662 22.4518 46.265 21.0523 46.265C19.5943 46.265 19.0695 45.1084 19.0695 43.7205V14.053C19.0695 12.665 19.6527 11.5084 21.0523 11.5084C22.4518 11.5084 23.035 12.665 23.035 14.053V43.7205Z" fill="black"/>
<path d="M34.9899 44.2988V13.4747C34.9899 11.5084 33.3571 9.88913 31.3743 9.88913C29.3915 9.88913 27.7587 11.5084 27.7587 13.4747V44.2988C27.7587 46.265 29.3915 47.8843 31.3743 47.8843C33.3571 47.9422 34.9899 46.3229 34.9899 44.2988Z" stroke="black" stroke-width="0.2551" stroke-miterlimit="10" stroke-linecap="round" stroke-linejoin="round"/>
<path d="M33.9402 44.2988C33.9402 45.7446 32.7739 46.8434 31.3743 46.8434C29.9747 46.8434 28.8083 45.6868 28.8083 44.2988V13.4747C28.8083 12.0868 29.9747 10.9301 31.3743 10.9301C32.8322 10.9301 33.9402 12.0868 33.9402 13.4747V44.2988Z" stroke="black" stroke-width="0.2551" stroke-miterlimit="10" stroke-linecap="round" stroke-linejoin="round"/>
<path fill-rule="evenodd" clip-rule="evenodd" d="M34.9899 44.2988V13.4747C34.9899 11.5084 33.3571 9.88913 31.3743 9.88913C29.3915 9.88913 27.7587 11.5084 27.7587 13.4747V44.2988C27.7587 46.265 29.3915 47.8843 31.3743 47.8843C33.3571 47.9422 34.9899 46.3229 34.9899 44.2988ZM33.4154 43.7205C33.4154 45.1662 32.8322 46.265 31.4326 46.265C29.9747 46.265 29.4499 45.1084 29.4499 43.7205V14.053C29.4499 12.665 30.033 11.5084 31.4326 11.5084C32.8322 11.5084 33.4154 12.665 33.4154 14.053V43.7205Z" fill="black"/>
<path d="M45.3703 44.2988V13.4747C45.3703 11.5084 43.7374 9.88913 41.7546 9.88913C39.7719 9.88913 38.139 11.5084 38.139 13.4747V44.2988C38.139 46.265 39.7719 47.8843 41.7546 47.8843C43.7374 47.9422 45.3703 46.3229 45.3703 44.2988Z" stroke="black" stroke-width="0.2551" stroke-miterlimit="10" stroke-linecap="round" stroke-linejoin="round"/>
<path d="M44.3206 44.2988C44.3206 45.7446 43.1542 46.8434 41.7546 46.8434C40.3551 46.8434 39.1887 45.6868 39.1887 44.2988V13.4747C39.1887 12.0868 40.3551 10.9301 41.7546 10.9301C43.2126 10.9301 44.3206 12.0868 44.3206 13.4747V44.2988Z" stroke="black" stroke-width="0.2551" stroke-miterlimit="10" stroke-linecap="round" stroke-linejoin="round"/>
<path fill-rule="evenodd" clip-rule="evenodd" d="M45.3703 44.2988V13.4747C45.3703 11.5084 43.7374 9.88913 41.7546 9.88913C39.7719 9.88913 38.139 11.5084 38.139 13.4747V44.2988C38.139 46.265 39.7719 47.8843 41.7546 47.8843C43.7374 47.9422 45.3703 46.3229 45.3703 44.2988ZM43.7374 43.7205C43.7374 45.1662 43.1542 46.265 41.7546 46.265C40.2967 46.265 39.7719 45.1084 39.7719 43.7205V14.053C39.7719 12.665 40.355 11.5084 41.7546 11.5084C43.1542 11.5084 43.7374 12.665 43.7374 14.053V43.7205Z" fill="black"/>
<path d="M11.0218 8.90596C10.8469 8.90596 10.6136 8.79029 10.497 8.6168C10.4387 8.55897 10.3803 8.44331 10.322 8.38547C9.97212 7.86499 9.62222 7.34451 9.62222 6.53487C9.62222 5.60957 10.0888 4.85776 10.5553 4.22162C10.9052 3.64331 11.2551 3.12282 11.2551 2.60234C11.2551 2.08186 10.9052 1.50355 10.497 0.983065C10.322 0.693908 10.3803 0.34692 10.6719 0.173427C10.9635 -6.74278e-05 11.3134 0.0577639 11.4884 0.34692C11.9549 1.0409 12.4214 1.7927 12.4214 2.66017C12.4214 3.58547 11.9549 4.27945 11.4884 4.91559C11.1385 5.49391 10.7886 6.01439 10.7886 6.5927C10.7886 7.05535 10.9635 7.34451 11.2551 7.80716C11.3134 7.86499 11.3717 7.98065 11.43 8.03849C11.605 8.32764 11.5467 8.67463 11.2551 8.84812C11.1968 8.84812 11.1385 8.90596 11.0218 8.90596Z" fill="#FFD300"/>
<path d="M21.4021 8.90596C21.2272 8.90596 20.9939 8.79029 20.8773 8.6168C20.819 8.55897 20.7607 8.44331 20.7023 8.38547C20.3524 7.86499 20.0025 7.34451 20.0025 6.53487C20.0025 5.60957 20.4691 4.85776 20.9356 4.22162C21.2855 3.64331 21.6354 3.12282 21.6354 2.60234C21.6354 2.08186 21.2855 1.50355 20.8773 0.983065C20.7023 0.693908 20.7607 0.34692 21.0522 0.173427C21.3438 -6.74278e-05 21.6937 0.0577639 21.8687 0.34692C22.3352 1.0409 22.8017 1.7927 22.8017 2.66017C22.8017 3.58547 22.3352 4.27945 21.8687 4.91559C21.5188 5.49391 21.1689 6.01439 21.1689 6.5927C21.1689 7.05535 21.3438 7.34451 21.6354 7.80716C21.6937 7.86499 21.752 7.98065 21.8104 8.03849C21.9853 8.32764 21.927 8.67463 21.6354 8.84812C21.6354 8.84812 21.5188 8.90596 21.4021 8.90596Z" fill="#FFD300"/>
<path d="M31.7825 8.90596C31.6076 8.90596 31.3743 8.79029 31.2577 8.6168C31.1993 8.55897 31.141 8.44331 31.0827 8.38547C30.7328 7.86499 30.3829 7.34451 30.3829 6.53487C30.3829 5.60957 30.8494 4.85776 31.316 4.22162C31.6659 3.64331 32.0158 3.12282 32.0158 2.60234C32.0158 2.08186 31.6659 1.50355 31.2577 0.983065C31.0827 0.693908 31.141 0.34692 31.4326 0.173427C31.7242 -6.74278e-05 32.0741 0.0577639 32.249 0.34692C32.7156 1.0409 33.1821 1.7927 33.1821 2.66017C33.1821 3.58547 32.7156 4.27945 32.249 4.91559C31.8991 5.49391 31.5492 6.01439 31.5492 6.5927C31.5492 7.05535 31.7242 7.34451 32.0158 7.80716C32.0741 7.86499 32.1324 7.98065 32.1907 8.03849C32.3657 8.32764 32.3074 8.67463 32.0158 8.84812C32.0158 8.84812 31.8991 8.90596 31.7825 8.90596Z" fill="#FFD300"/>
<path d="M42.8043 8.906C42.6294 8.906 42.3961 8.79034 42.2795 8.61684C42.2212 8.55901 42.1628 8.44335 42.1045 8.38552C41.7546 7.86503 41.4047 7.34455 41.4047 6.53491C41.4047 5.60961 41.8713 4.85781 42.3378 4.22166C42.6877 3.64335 43.0376 3.12287 43.0376 2.60238C43.0376 2.0819 42.6877 1.50359 42.2795 0.983108C42.1045 0.693951 42.1628 0.346963 42.4544 0.173469C42.8043 -0.057856 43.1542 -2.47043e-05 43.3875 0.289132C43.7957 0.925276 44.3205 1.73491 44.3205 2.54455C44.3205 3.46985 43.854 4.16383 43.3875 4.79997C43.0376 5.37829 42.6877 5.89877 42.6877 6.47708C42.6877 6.93973 42.8626 7.22889 43.1542 7.69154C43.2125 7.74937 43.2709 7.86503 43.3292 7.92287C43.5041 8.21202 43.4458 8.55901 43.1542 8.7325C43.0376 8.84817 42.921 8.906 42.8043 8.906Z" fill="#FFD300"/>
</g>
<defs>
<clipPath id="clip0">
<rect width="45.4286" height="48" fill="white"/>
</clipPath>
</defs>
</svg>
