<svg width="40" height="54" viewBox="0 0 40 54" fill="none" xmlns="http://www.w3.org/2000/svg">
<path d="M29.8231 51.9738H10.1831V53.9999H29.8231V51.9738Z" fill="#FFD300"/>
<path d="M30.882 47.2726H9.12488V35.2036C6.21517 33.3994 3.84552 30.9023 2.2484 27.9573C0.651285 25.0123 -0.118431 21.7205 0.0147676 18.4049C0.147966 15.0893 1.1795 11.8638 3.00818 9.04486C4.83686 6.22589 7.39986 3.91029 10.4457 2.32523C13.4916 0.740162 16.9157 -0.059912 20.3821 0.00349608C23.8486 0.0669042 27.2382 0.991616 30.2186 2.68691C33.1989 4.38221 35.6676 6.78985 37.3824 9.67364C39.0972 12.5574 39.9992 15.8183 39.9999 19.1363C40.0117 22.3308 39.1827 25.4766 37.5891 28.2835C35.9956 31.0905 33.6889 33.468 30.882 35.1968V47.2726ZM11.242 45.2465H28.7649V34.0622L29.273 33.7718C31.943 32.2221 34.1425 30.0304 35.6526 27.4147C37.1627 24.7989 37.9308 21.8503 37.8804 18.8623C37.83 15.8742 36.963 12.9509 35.3655 10.3831C33.768 7.81537 31.4957 5.69269 28.7749 4.22629C26.054 2.7599 22.9793 2.0009 19.8568 2.02483C16.7342 2.04876 13.6726 2.85477 10.9766 4.36268C8.28063 5.87058 6.04422 8.02781 4.48989 10.6197C2.93557 13.2116 2.11752 16.1479 2.11714 19.1363C2.10701 22.08 2.89579 24.9757 4.40625 27.54C5.91671 30.1044 8.09708 32.2493 10.7339 33.765L11.242 34.0554V45.2465Z" fill="#262626"/>
</svg>
