<svg width="32" height="32" viewBox="0 0 32 32" fill="none" xmlns="http://www.w3.org/2000/svg">
<path d="M26.3053 21.672L17.6415 6.66596C17.1598 5.83155 16.2969 5.33333 15.3333 5.33333C14.3698 5.33333 13.5068 5.83155 13.0251 6.66596L4.36135 21.672C3.87955 22.5065 3.87955 23.5029 4.36135 24.3373C4.84315 25.1718 5.70598 25.67 6.66958 25.67H23.997C24.9606 25.67 25.8235 25.1717 26.3053 24.3374C26.7871 23.5029 26.7871 22.5065 26.3053 21.672ZM25.1553 23.6734C24.9135 24.0921 24.4805 24.3421 23.997 24.3421H6.66958C6.18605 24.3421 5.75309 24.0921 5.51137 23.6734C5.26965 23.2547 5.26965 22.7548 5.51137 22.3361L14.1752 7.32998C14.4169 6.91127 14.8499 6.66132 15.3334 6.66132C15.8168 6.66132 16.2498 6.91127 16.4915 7.32998L25.1553 22.3361C25.397 22.7548 25.397 23.2547 25.1553 23.6734Z" fill="#D0003E"/>
<path d="M15.9972 11.9604H14.6693V18.6002H15.9972V11.9604Z" fill="#D0003E"/>
<path d="M15.3333 19.9283C14.8452 19.9283 14.448 20.3254 14.448 20.8136C14.448 21.3018 14.8452 21.6989 15.3333 21.6989C15.8215 21.6989 16.2187 21.3018 16.2187 20.8136C16.2187 20.3254 15.8215 19.9283 15.3333 19.9283Z" fill="#D0003E"/>
</svg>
