<svg width="40" height="54" viewBox="0 0 40 54" fill="none" xmlns="http://www.w3.org/2000/svg">
<path d="M24.7703 53.4658L23.3663 51.8926C26.8341 48.6609 28.0065 45.1231 28.0697 40.8734C28.1188 37.6559 26.8201 34.1536 24.2157 30.4307C23.9463 32.4309 23.3458 34.3706 22.4396 36.1681C21.561 37.9097 20.3175 39.4355 18.7962 40.6385C18.4516 40.8757 18.0586 41.0309 17.6465 41.0925C17.2344 41.1541 16.814 41.1206 16.4165 40.9944C16.1753 40.9217 15.9405 40.8288 15.7145 40.7168C15.2967 40.503 14.8912 40.2653 14.5 40.0049C14.0016 39.6846 13.1873 39.0511 12.2957 38.3464C11.6494 39.6524 11.263 41.0746 11.1585 42.532C11.0742 45.0519 10.8707 47.1589 14.7457 51.9211L13.11 53.2665C8.76465 47.9348 8.94015 45.301 9.03141 42.4394C9.10863 40.1544 9.97911 38.1684 10.9409 36.1966L11.5165 35.0221L13.2575 36.3959C14.1841 37.1078 15.1388 37.8837 15.6092 38.1898C16.0795 38.4958 16.4235 38.7023 16.6271 38.8019C16.7464 38.863 16.8709 38.913 16.9991 38.9514C17.0923 38.9836 17.1916 38.9933 17.2891 38.9797C17.3866 38.9661 17.4796 38.9296 17.5607 38.8731C18.7997 37.8664 19.8142 36.6049 20.5372 35.1716C21.6849 32.8119 22.2966 30.2214 22.3273 27.5905L22.4256 24.793L24.1876 26.9285C28.196 31.8402 30.1967 36.5383 30.1335 40.8805C30.0844 45.7637 28.6804 49.8283 24.7703 53.4658Z" fill="#FFDB31"/>
<path d="M24.57 54L24.2752 51.8645C30.9723 50.932 37.908 44.9597 37.908 36.6169C37.908 30.4168 36.7216 25.4767 34.0681 20.5863C31.4145 15.696 26.9358 10.3359 20.2106 4.11442C18.3573 11.9446 13.8926 16.5004 10.5089 19.8674C9.96139 20.4226 9.44191 20.9423 8.96455 21.4477C5.4405 25.1991 2.106 28.744 2.106 36.7451C2.14251 38.5473 2.53392 40.3239 3.25725 41.9705C3.98058 43.6171 5.02122 45.1005 6.318 46.3335C8.9894 48.8788 12.1964 50.7749 15.6967 51.8787L14.9947 53.9075C11.1981 52.694 7.72253 50.6227 4.82976 47.8497C3.32702 46.4253 2.12436 44.707 1.29428 42.7985C0.464212 40.89 0.0239339 38.8308 0 36.7451C0 27.8827 3.95226 23.6828 7.4412 19.9742C7.9326 19.4545 8.46612 18.9206 9.02772 18.3512C12.636 14.735 17.0867 10.2362 18.5118 1.89349L18.8277 0L20.2317 1.27419C27.9537 8.21461 32.8677 14.0232 35.9003 19.5542C38.7083 24.7791 40 30.0395 40 36.6383C40.014 46.12 32.1586 52.918 24.57 54Z" fill="black"/>
</svg>
