<svg width="54" height="54" viewBox="0 0 54 54" fill="none" xmlns="http://www.w3.org/2000/svg">
<path d="M21.504 51.9741H9.61111V54.0003H21.504V51.9741Z" fill="#FFD300"/>
<path d="M8.61182 47.273V35.2039C5.86571 33.3997 3.6293 30.9026 2.12198 27.9575C0.614666 25.0125 -0.111772 21.7207 0.0139373 18.4051C0.139647 15.0895 1.11318 11.8639 2.83904 9.04494C4.5649 6.22595 6.98378 3.91032 9.8584 2.32525C12.733 0.740168 15.9646 -0.0599125 19.2361 0.00349611C22.5076 0.0669047 25.7067 0.991625 28.5195 2.68693C30.1145 3.64828 31.5542 4.83868 32.797 6.21508L32.0186 8.40221C30.6787 6.71556 29.0305 5.29626 27.1569 4.22633C24.5891 2.75992 21.6873 2.00092 18.7403 2.02485C15.7933 2.04878 12.9038 2.8548 10.3594 4.36271C7.81504 5.87063 5.70437 8.02788 4.23744 10.6198C2.77051 13.2118 1.99846 16.148 1.9981 19.1365C1.98854 22.0802 2.73297 24.9759 4.1585 27.5403C5.58403 30.1046 7.64181 32.2496 10.1304 33.7653L10.6099 34.0557V45.2468H18.8787L20.6278 47.273H8.61182Z" fill="#262626"/>
<path d="M39.8394 52.7453L38.4488 51.1934C41.8836 48.0052 43.0448 44.515 43.1073 40.3226C43.156 37.1485 41.8697 33.6935 39.2901 30.0207C39.0233 31.994 38.4286 33.9075 37.531 35.6808C36.6608 37.399 35.4292 38.9041 33.9224 40.0909C33.5811 40.3249 33.1918 40.478 32.7837 40.5388C32.3755 40.5996 31.9591 40.5665 31.5654 40.442C31.3265 40.3703 31.0939 40.2787 30.8701 40.1682C30.4563 39.9572 30.0547 39.7228 29.6672 39.4659C29.1735 39.1499 28.367 38.5249 27.4839 37.8297C26.8438 39.1181 26.4611 40.5212 26.3576 41.9589C26.355 42.0361 26.3523 42.113 26.3496 42.1896C26.2655 44.5766 26.1918 46.6695 29.9105 51.2215L28.2905 52.5487C24.0705 47.3915 24.1553 44.7929 24.2455 42.0325C24.2472 41.9776 24.249 41.9226 24.2508 41.8676C24.3273 39.6134 25.1895 37.6541 26.142 35.7089L26.7122 34.5502L28.4365 35.9055C28.7273 36.1281 29.0209 36.3569 29.3012 36.5754C29.9054 37.0463 30.4475 37.4689 30.7658 37.6752C31.2316 37.9772 31.5723 38.1808 31.7739 38.2791C31.8922 38.3393 32.0155 38.3887 32.1425 38.4266C32.2347 38.4584 32.3331 38.4679 32.4296 38.4545C32.5262 38.4411 32.6183 38.4051 32.6987 38.3493C33.9259 37.3562 34.9307 36.1117 35.6468 34.6977C36.7835 32.3698 37.3894 29.8142 37.4198 27.2188L37.5171 24.459L39.2623 26.5657C43.2325 31.4112 45.2141 36.046 45.1515 40.3297C45.1029 45.1471 43.7123 49.1569 39.8394 52.7453Z" fill="#FFDB31"/>
<path d="M39.8394 52.7453L38.4488 51.1934C41.8836 48.0052 43.0448 44.515 43.1073 40.3226C43.156 37.1485 41.8697 33.6935 39.2901 30.0207C39.0233 31.994 38.4286 33.9075 37.531 35.6808C36.6608 37.399 35.4292 38.9041 33.9224 40.0909C33.5811 40.3249 33.1918 40.478 32.7837 40.5388C32.3755 40.5996 31.9591 40.5665 31.5654 40.442C31.3265 40.3703 31.0939 40.2787 30.8701 40.1682C30.4563 39.9572 30.0547 39.7228 29.6672 39.4659C29.1735 39.1499 28.367 38.5249 27.4839 37.8297C26.8438 39.1181 26.4611 40.5212 26.3576 41.9589C26.355 42.0361 26.3523 42.113 26.3496 42.1896C26.2655 44.5766 26.1918 46.6695 29.9105 51.2215L28.2905 52.5487C24.0705 47.3915 24.1553 44.7929 24.2455 42.0325C24.2472 41.9776 24.249 41.9226 24.2508 41.8676C24.3273 39.6134 25.1895 37.6541 26.142 35.7089L26.7122 34.5502L28.4365 35.9055C28.7273 36.1281 29.0209 36.3569 29.3012 36.5754C29.9054 37.0463 30.4475 37.4689 30.7658 37.6752C31.2316 37.9772 31.5723 38.1808 31.7739 38.2791C31.8922 38.3393 32.0155 38.3887 32.1425 38.4266C32.2347 38.4584 32.3331 38.4679 32.4296 38.4545C32.5262 38.4411 32.6183 38.4051 32.6987 38.3493C33.9259 37.3562 34.9307 36.1117 35.6468 34.6977C36.7835 32.3698 37.3894 29.8142 37.4198 27.2188L37.5171 24.459L39.2623 26.5657C43.2325 31.4112 45.2141 36.046 45.1515 40.3297C45.1029 45.1471 43.7123 49.1569 39.8394 52.7453Z" stroke="#FFD300"/>
<path d="M38.7171 53.2721L38.425 51.1654C45.0582 50.2455 51.9278 44.3537 51.9278 36.1234C51.9278 30.0068 50.7527 25.1333 48.1245 20.3089C45.4962 15.4845 41.0602 10.1966 34.3992 4.05896C32.5636 11.7836 28.1415 16.278 24.7902 19.5996C24.6805 19.7104 24.5719 19.8197 24.4646 19.9278C24.0414 20.3541 23.6377 20.7608 23.2605 21.1586L23.2544 21.165C19.7663 24.8635 16.4674 28.3612 16.4674 36.2498C16.5036 38.0277 16.8913 39.7804 17.6077 41.4048C18.3241 43.0292 19.3548 44.4926 20.6392 45.709C23.2851 48.2199 26.4616 50.0906 29.9285 51.1795L29.2332 53.1808C25.4728 51.9837 22.0304 49.9404 19.1652 47.2048C17.6768 45.7996 16.4856 44.1044 15.6635 42.2216C14.8413 40.3389 14.4052 38.3074 14.3815 36.2498C14.3815 27.5082 18.2949 23.3649 21.7502 19.7066L21.7517 19.7049C22.14 19.296 22.5548 18.8781 22.9891 18.4406C23.0992 18.3296 23.2106 18.2174 23.3231 18.1038C26.8969 14.5364 31.3052 10.0983 32.7166 1.86797L33.0295 0L34.4201 1.25701C42.0684 8.10388 46.9355 13.8342 49.9392 19.2906C52.7204 24.4451 53.9998 29.6346 53.9998 36.1444C54.0137 45.4983 46.2333 52.2047 38.7171 53.2721Z" fill="#262626"/>
<path d="M38.7171 53.2721L38.425 51.1654C45.0582 50.2455 51.9278 44.3537 51.9278 36.1234C51.9278 30.0068 50.7527 25.1333 48.1245 20.3089C45.4962 15.4845 41.0602 10.1966 34.3992 4.05896C32.5636 11.7836 28.1415 16.278 24.7902 19.5996C24.6805 19.7104 24.5719 19.8197 24.4646 19.9278C24.0414 20.3541 23.6377 20.7608 23.2605 21.1586L23.2544 21.165C19.7663 24.8635 16.4674 28.3612 16.4674 36.2498C16.5036 38.0277 16.8913 39.7804 17.6077 41.4048C18.3241 43.0292 19.3548 44.4926 20.6392 45.709C23.2851 48.2199 26.4616 50.0906 29.9285 51.1795L29.2332 53.1808C25.4728 51.9837 22.0304 49.9404 19.1652 47.2048C17.6768 45.7996 16.4856 44.1044 15.6635 42.2216C14.8413 40.3389 14.4052 38.3074 14.3815 36.2498C14.3815 27.5082 18.2949 23.3649 21.7502 19.7066L21.7517 19.7049C22.14 19.296 22.5548 18.8781 22.9891 18.4406C23.0992 18.3296 23.2106 18.2174 23.3231 18.1038C26.8969 14.5364 31.3052 10.0983 32.7166 1.86797L33.0295 0L34.4201 1.25701C42.0684 8.10388 46.9355 13.8342 49.9392 19.2906C52.7204 24.4451 53.9998 29.6346 53.9998 36.1444C54.0137 45.4983 46.2333 52.2047 38.7171 53.2721Z" stroke="#262626"/>
</svg>
