<svg width="32" height="32" viewBox="0 0 32 32" fill="none" xmlns="http://www.w3.org/2000/svg">
<path d="M16 5.33334C10.104 5.33334 5.33331 10.1045 5.33331 16C5.33331 21.896 10.1044 26.6667 16 26.6667C21.8959 26.6667 26.6666 21.8955 26.6666 16C26.6666 10.1041 21.8955 5.33334 16 5.33334ZM16 25C11.0253 25 6.99998 20.9744 6.99998 16C6.99998 11.0253 11.0256 7.00001 16 7.00001C20.9747 7.00001 25 11.0256 25 16C25 20.9747 20.9743 25 16 25Z" fill="#006699"/>
<path d="M16 14.2638C15.5398 14.2638 15.1667 14.6368 15.1667 15.0971V20.4635C15.1667 20.9237 15.5398 21.2968 16 21.2968C16.4603 21.2968 16.8334 20.9237 16.8334 20.4634V15.0971C16.8334 14.6368 16.4603 14.2638 16 14.2638Z" fill="#006699"/>
<path d="M16 13.2433C16.6213 13.2433 17.125 12.7396 17.125 12.1183C17.125 11.497 16.6213 10.9933 16 10.9933C15.3787 10.9933 14.875 11.497 14.875 12.1183C14.875 12.7396 15.3787 13.2433 16 13.2433Z" fill="#006699"/>
</svg>
