<svg width="24" height="25" viewBox="0 0 24 25" fill="none" xmlns="http://www.w3.org/2000/svg">
<path d="M4.25574 16.7722L4.77984 17.3307C4.94479 17.5051 5.16424 17.6011 5.39877 17.6011C5.63318 17.6011 5.85289 17.5051 6.01784 17.3307L11.9964 11.0042L17.9819 17.3377C18.1466 17.5121 18.3663 17.608 18.6007 17.608C18.8351 17.608 19.055 17.5121 19.2198 17.3377L19.744 16.7827C20.0853 16.4218 20.0853 15.8339 19.744 15.473L12.6176 7.90507C12.4529 7.73081 12.2334 7.60803 11.9969 7.60803H11.9942C11.7597 7.60803 11.5402 7.73095 11.3755 7.90507L4.25574 15.4525C4.0908 15.6268 4.00026 15.866 4 16.114C4 16.3622 4.0908 16.5981 4.25574 16.7722Z" fill="#D0003E"/>
</svg>
