<svg width="24" height="25" viewBox="0 0 24 25" fill="none" xmlns="http://www.w3.org/2000/svg">
<path d="M19.7443 8.44382L19.2202 7.88539C19.0552 7.71099 18.8358 7.61491 18.6012 7.61491C18.3668 7.61491 18.1471 7.71099 17.9822 7.88539L12.0036 14.2119L6.0181 7.87837C5.85341 7.70397 5.6337 7.60803 5.3993 7.60803C5.16489 7.60803 4.94505 7.70397 4.78023 7.87837L4.256 8.43336C3.91467 8.79427 3.91467 9.38215 4.256 9.74306L11.3824 17.311C11.5471 17.4853 11.7666 17.608 12.0031 17.608H12.0058C12.2403 17.608 12.4598 17.4851 12.6245 17.311L19.7443 9.76357C19.9092 9.58931 19.9997 9.35008 20 9.10204C20 8.85387 19.9092 8.61794 19.7443 8.44382Z" fill="#999999"/>
</svg>
