<svg width="32" height="32" viewBox="0 0 32 32" fill="none" xmlns="http://www.w3.org/2000/svg">
<path d="M21.3267 12.4932C20.9983 12.147 20.4509 12.1317 20.1041 12.4609L14.5828 17.6972L11.9493 14.9933C11.6157 14.6511 11.0689 14.6436 10.7264 14.9772C10.3842 15.3104 10.3769 15.8579 10.7102 16.2001L13.939 19.5151C14.1082 19.6889 14.3331 19.7766 14.5586 19.7766C14.7725 19.7766 14.9864 19.6976 15.1539 19.5393L21.2944 13.7159C21.6409 13.3872 21.6556 12.8398 21.3267 12.4932Z" fill="#3C781C"/>
<path d="M16 5.33333C10.1183 5.33333 5.33331 10.1183 5.33331 16C5.33331 21.8817 10.1183 26.6667 16 26.6667C21.8816 26.6667 26.6666 21.8817 26.6666 16C26.6666 10.1183 21.8816 5.33333 16 5.33333ZM16 24.937C11.0723 24.937 7.06302 20.928 7.06302 16C7.06302 11.0723 11.0722 7.06304 16 7.06304C20.928 7.06304 24.9369 11.0722 24.9369 16C24.9369 20.928 20.928 24.937 16 24.937Z" fill="#3C781C"/>
</svg>
